<?xml version="1.0" encoding="UTF-8"?><svg id="Layer_1" xmlns="http://www.w3.org/2000/svg" width="1199.38" height="312.13" viewBox="0 0 1199.38 312.13"><defs><style>.cls-1{fill:#fff;}</style></defs><g id="mWt0cS"><path class="cls-1" d="M162.18,48.42c-6.51,18.01-13.34,36.35-19.96,54.08-10.37,27.81-21.09,56.57-30.91,85.06-.14,4.74,1.64,8.5,5.57,11.83,7.9,6.68,16.78,12.99,25.36,19.09,7.8,5.54,15.85,11.26,23.24,17.31,4.27,2.56,10.1,2.27,13.91-.71,10.07-8.47,20.47-17.04,30.53-25.32,15.29-12.6,31.1-25.62,46.33-38.77,2.41-3.56,2.65-8.08.6-11.61l-66.36-107.92c-4.11-5.7-12.09-11.29-18.87-10.41-3.83.49-7.97,3.72-9.44,7.36Z"/><path class="cls-1" d="M88.75,61.02c-18.99,13.39-33.36,31.86-41.56,53.42-4.31,11.31-9.18,24.12.47,32.8,7.82,5.18,15.48,11.34,22.89,17.29,7.89,6.34,16.04,12.9,24.26,18.15,2.22,1.42,4.1,1.96,5.57,1.6,1.21-.3,2.32-1.29,3.3-2.93l52.51-141.97c-.64.01-1.38.08-1.79.11-.49.04-.93.08-1.27.09-23.18.66-45.44,8.07-64.38,21.43Z"/><path class="cls-1" d="M266.85,176.08c-.44-.35-.89-.46-1.47-.37-.79.13-2.48,1.53-3.39,2.28-.33.27-.63.53-.92.75-12.78,10.06-25.43,20.79-37.66,31.17-12.09,10.26-24.58,20.87-37.24,30.85-2.16,2.03-3.23,3.88-3.18,5.51.05,1.72,1.37,3.66,3.91,5.78,13.36,11.11,18.37,11.3,33.47,1.29,20.01-13.27,35.77-32.79,44.38-54.96,1.53-3.94,4.71-12.13,4.4-16.49-.15-2.11-.99-4.78-2.29-5.81Z"/><path class="cls-1" d="M161.71,246.78c-.03-1.64-1.09-3.39-3.14-5.21l-46.96-35.21c-1.39-1.01-3.16-1.52-4.58-1.31-1.18.18-2.87,1.57-3.72,3.03-1.62,5.24-3.81,10.58-5.93,15.75-2.42,5.89-4.91,11.99-6.5,17.79-3.1,11.35,5.86,16.06,18.86,21.47l.96.4c14.75,6.16,23.04,8.92,35.63-1l.6-.47c3.75-2.95,8.43-6.63,11.67-9.7,2.1-1.99,3.15-3.86,3.12-5.54Z"/><path class="cls-1" d="M92.08,212.77c1.14-3.42,2.31-6.95,3.49-10.33.28-4.52-1.3-8.68-4.36-11.46l-50.74-38.2c-.08.08-.16.16-.24.24-.25.24-.51.41-.76.55-.23,3.3.12,8.04.32,10.89,1.89,26,12.94,51.69,30.31,70.47l.13.14c4.79,5.18,6.52,6.14,7.13,6.25,2.38.38,4.13-.24,5.97-4.5,3.27-7.57,6.06-15.95,8.75-24.06Z"/><path class="cls-1" d="M267.96,160.35c.29.15.67.25,1.26.17.86-.32,3.06-2.18,3.52-3.08.12-21.23-5.52-42.14-16.34-60.49-10.87-18.45-26.5-33.5-45.2-43.54-2.55-1.37-6.39-3.43-9.16-4.41-.46-.16-1.69-.59-2.58-.62.06.55.29,1.37.59,1.83l67.9,110.14Z"/><path class="cls-1" d="M180.28,257.93c-4.94-3.23-10.21-3.23-14.83.01l-15.77,13.16c.17.13.35.26.49.37.29.21.57.42.83.63.17.14.31.29.43.43,1.39.1,3.7.21,4.23.21h.26c8.6,0,18.27-1.12,26.56-3.09l.5-.12c1.96-.46,5.6-1.31,6.23-2.64.25-.54-.06-1.4-.37-2.03-.69-1.09-6.07-5.32-8.56-6.94Z"/></g><path class="cls-1" d="M382.35,102.78h26.43v30.18h5.41c1.67-21.23,17.69-32.89,38.09-32.89,23.73,0,38.09,14.78,38.09,41.22v72.44h-26.23v-67.44c0-16.65-9.78-25.6-23.52-25.6-19.36,0-31.85,17.48-31.85,48.08v44.96h-26.43v-110.95Z"/><path class="cls-1" d="M511.62,175.22v-72.44h26.44v67.44c0,16.65,9.57,25.6,23.31,25.6,19.57,0,32.06-17.49,32.06-48.08v-44.96h26.23v110.95h-26.23v-30.18h-5.62c-1.66,21.23-17.69,32.89-38.09,32.89-23.73,0-38.09-14.57-38.09-41.21Z"/><path class="cls-1" d="M661.71,170.85v-47.04h-29.97v-21.02h31.02v-31.64l25.19-13.53v45.17h43.92v21.02h-59.74v6.25h3.54c8.32.21,12.28,5.41,12.28,12.91v25.6c0,15.82,7.7,24.15,22.48,24.15h21.44v21.02h-28.1c-27.06,0-42.05-14.99-42.05-42.88Z"/><path class="cls-1" d="M738.1,241.83l41.63-33.51,4.37-3.33c-28.31-2.08-46.63-23.1-46.63-50.37,0-29.98,23.52-51.83,58.08-51.83h60.16v21.02h-38.92v5.41c19.98,1.25,28.52,16.24,28.52,31.43s-7.91,25.6-17.9,34.35l-29.77,26.23c-9.37,8.32-16.24,11.03-29.14,11.03h-3.75v6.24h87.22v21.02h-113.86v-17.69ZM822.4,154.61c0-17.28-12.91-30.6-29.97-30.6s-30.18,12.91-30.18,30.6,12.7,30.81,30.18,30.81c18.94,0,29.97-14.57,29.97-30.81Z"/><path class="cls-1" d="M870.91,102.78h26.44v38.3h5.41c1.87-27.27,17.69-39.34,42.46-39.34h13.95v23.1h-15.4c-31.85,0-46.42,18.94-46.42,53.29v35.59h-26.44v-110.95Z"/><path class="cls-1" d="M967.49,179.17c0-15.4,7.91-26.64,15.61-33.51,16.24-14.57,20.4-15.4,36.43-15.4h14.78v-6.45h-65.36v-21.02h108.45v110.95h-26.44v-30.6h-5.41c-2.71,21.86-18.94,33.31-39.97,33.31-23.11,0-38.09-16.86-38.09-37.26ZM1050.96,148.57v-25.19l-38.09,26.23c-12.7,8.74-17.28,16.03-17.28,25.6,0,12.91,9.37,20.81,22.9,20.81,19.36,0,32.47-16.44,32.47-47.46Z"/><path class="cls-1" d="M1160.46,51.37h38.92v21.02h-33.1c-13.53,0-20.61,7.08-20.61,20.19v10.2h53.7v21.02h-69.52v6.25h3.54c8.33.21,12.28,5.41,12.28,12.91v70.77h-26.23v-89.92h-29.97v-21.02h29.97v-10.62c0-25.81,14.57-40.8,41.01-40.8Z"/></svg>