<svg width="152" height="64" viewBox="0 0 152 64" fill="none" xmlns="http://www.w3.org/2000/svg">
<g id="logo">
<g id="africa">
<path d="M137.7 1.90039L130 20.5004L133.6 21.9004L150.7 24.5004C150.8 23.5004 150.9 22.5004 150.9 21.5004C150.9 13.0004 145.8 5.20039 137.7 1.90039Z" fill="#000000"/>
<path d="M131.9 19.8C132.1 19.5 137.5 5.9 139.1 1.8C136.3 0.7 133.3 0 130 0C121.9 0 114.3 4.2 110.5 11.3L130 19.3L131.9 19.8Z" fill="#000000"/>
<path fill-rule="evenodd" clip-rule="evenodd" d="M111.4 9.7998L119.3 12.6998L119 13.8998L110.6 9.9998L111.4 9.7998Z" fill="#000000"/>
<path fill-rule="evenodd" clip-rule="evenodd" d="M133.5 40.2L131.5 39.7L132.9 30.4L132 19.6L128.3 18.1L110.5 10C108.9 13 107.9 16.6 107.9 20.6V20.7C107.9 28.6 112.8 36.4 120.8 39.7L119.2 51.3L133.5 40.2Z" fill="#000000"/>
<path fill-rule="evenodd" clip-rule="evenodd" d="M132.5 33.5996L131.2 41.9996L132.7 42.4996L133.5 34.1996L132.5 33.5996Z" fill="#000000"/>
<path d="M131.8 19.8998L132.4 20.0998L139.7 2.8998L139.1 1.7998L131.5 19.0998L131.8 19.8998Z" fill="#000000"/>
<path d="M150.4 23.3004L141.3 21.9004L138.9 23.0004L151.8 24.0004L150.4 23.3004Z" fill="#000000"/>
<path d="M151.8 23.9998L131.3 21.2998L131.7 22.2998L133.3 31.3998L132.6 42.4998C143.2 41.2998 150.6 33.4998 151.8 23.9998Z" fill="#000000"/>
<path fill-rule="evenodd" clip-rule="evenodd" d="M136 9.7998L140.2 16.4998L142.9 15.6998L143.3 16.0998L141.4 20.9998L137.8 23.1998L138.7 27.1998L136.4 29.0998L136.7 30.9998L135.8 31.5998L135.6 32.7998L132.9 35.1998L130.2 35.4998L128.5 29.9998L127.5 28.1998L128.4 25.4998L126.4 21.2998L126.7 19.3998L124.4 18.0998L120 19.4998L116.4 15.5998L116.8 11.7998L120.6 6.9998L127.3 5.7998L127.7 7.3998C127.7 7.3998 130.3 8.5998 130.5 8.4998C130.7 8.3998 131.6 7.4998 131.6 7.4998L136.7 8.3998L136 9.7998Z" fill="white"/>
</g>
<path id="barometer" fill-rule="evenodd" clip-rule="evenodd" d="M4.5 63.3996H0V50.1996H5C6.4 50.1996 7.5 50.4996 8.3 51.0996C9.1 51.6996 9.5 52.4996 9.5 53.6996C9.5 54.6996 9 55.7996 7.9 56.3996C10.1 57.1996 10.2 58.8996 10.2 59.4996C10.2 60.5996 9.8 61.6996 8.9 62.3996C7.7 63.2996 6.8 63.3996 4.5 63.3996ZM4.7 53.0996H3.5V55.1996H4.7C4.9 55.1996 5.3 55.1996 5.6 55.0996C5.9 54.9996 6.2 54.6996 6.2 54.1996C6.2 53.6996 6 53.3996 5.7 53.2996C5.4 53.0996 5 53.0996 4.7 53.0996ZM5.1 57.9996H3.5V60.3996H5.1C5.3 60.3996 5.8 60.3996 6.1 60.1996C6.5 59.9996 6.8 59.6996 6.8 59.0996C6.8 58.4996 6.5 58.1996 6.1 58.0996C5.9 57.9996 5.4 57.9996 5.1 57.9996ZM20.2 61.4996H15.6L15 63.3996H11.3L16.5 50.1996H19.4L24.5 63.3996H20.8L20.2 61.4996ZM16.4 58.7996H19.3L17.8 54.1996L16.4 58.7996ZM29.7 63.3996H26.4V50.1996H30.7C32.7 50.1996 34 50.5996 34.7 51.0996C35.8 51.9996 36.3 53.2996 36.3 54.6996C36.3 55.6996 36 56.4996 35.6 57.0996C35.2 57.7996 34.5 58.1996 33.9 58.4996L36.6 63.3996H33.2L29.8 56.9996H30.3C31.1 56.9996 31.9 56.8996 32.3 56.5996C32.7 56.2996 33 55.6996 33 54.9996C33 54.2996 32.7 53.7996 32.2 53.4996C31.8 53.2996 31.3 53.0996 30.8 53.0996H29.6V63.3996H29.7ZM45.6 63.9996C41.3 63.9996 38.4 60.6996 38.4 57.2996C38.4 52.8996 41.8 50.1996 45.6 50.1996C49.8 50.1996 52.8 53.3996 52.8 57.0996C52.8 60.7996 49.9 63.9996 45.6 63.9996ZM45.7 53.1996C43.3 53.1996 42 55.1996 42 57.0996C42 59.0996 43.4 60.9996 45.8 60.9996C48.3 60.9996 49.5 58.7996 49.5 57.0996C49.4 55.3996 48.2 53.1996 45.7 53.1996ZM58.1 53.4996L58.2 63.3996H55V50.1996H59.7L62.3 58.6996L64.8 50.1996H69.5V63.3996H66.3L66.4 53.4996L63.4 63.3996H61L58.1 53.4996ZM79.8 63.3996H72.6V50.1996H79.8V53.1996H75.8V55.2996H79.6V58.2996H75.8V60.5996H79.8V63.3996ZM87.7 63.3996H84.6V53.0996H82.2V50.0996H90V53.0996H87.6V63.3996H87.7ZM99.1 63.3996H91.9V50.1996H99.1V53.1996H95.1V55.2996H99V58.2996H95.2V60.5996H99.2V63.3996H99.1ZM105.4 63.3996H102.1V50.1996H106.4C108.4 50.1996 109.7 50.5996 110.4 51.0996C111.5 51.9996 112 53.2996 112 54.6996C112 55.6996 111.7 56.4996 111.3 57.0996C110.9 57.7996 110.2 58.1996 109.6 58.4996L112.3 63.3996H108.9L105.5 56.9996H106C106.8 56.9996 107.6 56.8996 108 56.5996C108.4 56.2996 108.7 55.6996 108.7 54.9996C108.7 54.2996 108.4 53.7996 107.9 53.4996C107.5 53.2996 107 53.0996 106.5 53.0996H105.3V63.3996H105.4Z" fill="#000000"/>
<path id="afr" fill-rule="evenodd" clip-rule="evenodd" d="M45.5 42.6998H56.1V26.8998H67.7V17.5998H56.1V10.5998H68.2V1.3998H45.5V42.6998ZM73.9 42.6998H84.5V10.6998H88.4C89.9 10.6998 91.6 11.0998 92.7 11.7998C94.1 12.6998 95.2 14.3998 95.2 16.5998C95.2 18.8998 94.1 20.7998 92.8 21.6998C91.4 22.5998 89.1 22.7998 86.4 22.7998H84.7L95.6 42.6998H106.6L98 27.4998C100 26.6998 102 25.2998 103.4 23.0998C104.6 21.2998 105.5 18.7998 105.5 15.5998C105.5 11.0998 103.9 6.9998 100.4 4.2998C98.1 2.4998 94 1.2998 87.5 1.2998H73.9V42.6998ZM13.3 36.6998H27.7L29.6 42.6998H41.1L25.4 1.3998H16.3L0 42.6998H11.4L13.3 36.6998ZM25 28.2998H15.9L20.4 13.9998L25 28.2998Z" fill="#000000"/>
</g>
</svg>
