<?xml version="1.0" encoding="UTF-8"?><svg id="Layer_1" xmlns="http://www.w3.org/2000/svg" width="1199.38" height="312.13" viewBox="0 0 1199.38 312.13"><defs><style>.cls-1{fill:#9ff79f;stroke:#000;stroke-miterlimit:10;stroke-width:5px;}</style></defs><rect width="312.13" height="312.13" rx="30" ry="30"/><g id="mWt0cS"><path class="cls-1" d="M171.31,38.57c8.05-1.02,16.81,5.26,21.27,11.5l66.44,108.05c2.65,4.56,2.14,10.3-.89,14.55-25.33,21.88-51.55,42.82-77.19,64.37-4.74,3.7-11.81,3.92-16.89.78-15.49-12.69-33.56-23.67-48.77-36.53-4.41-3.73-6.73-8.27-6.44-14.2,16.11-46.81,34.2-93.03,51.03-139.62,1.78-4.41,6.7-8.3,11.45-8.91Z"/><path class="cls-1" d="M153.06,37.09c1.83-.05,6.68-1.03,5.99,1.78l-53.1,143.55c-3.1,5.42-7.55,5.53-12.48,2.37-16.12-10.31-31.23-24.93-47.34-35.57-11.08-9.79-5.75-23.94-1.28-35.68,17.11-44.96,60.04-75.08,108.21-76.46Z"/><path class="cls-1" d="M264.98,173.25c4.51-.73,6.4,4.92,6.66,8.46.35,4.85-2.75,12.91-4.56,17.58-8.85,22.79-24.98,42.64-45.33,56.14-15.48,10.27-21.88,10.66-36.45-1.45-5.89-4.9-6.64-9.62-.77-15.11,25.46-20.08,49.51-42.05,74.99-62.09,1.46-1.15,3.66-3.24,5.45-3.53Z"/><path class="cls-1" d="M106.65,202.58c2.24-.34,4.65.46,6.46,1.78l47.04,35.27c5.44,4.77,5.35,9.6.16,14.51-3.5,3.31-8.58,7.28-12.43,10.31-13.8,10.86-23.15,7.61-38.14,1.34-11.1-4.64-25.3-10.07-21.26-24.84,3.05-11.16,9.11-22.69,12.52-33.87,1.05-1.98,3.39-4.17,5.66-4.51Z"/><path class="cls-1" d="M37.38,151.71c.2-.18.77-.15,1.13-.5,1.25-1.18.84-2.54,3.07-.72l51.23,38.56c3.94,3.52,5.67,8.66,5.24,13.9-3.98,11.34-7.66,23.84-12.42,34.87-1.66,3.85-3.97,6.71-8.66,5.97-2.5-.4-6.89-5.2-8.7-7.16-17.97-19.43-29.05-45.53-30.97-71.99-.25-3.43-.57-8.01-.31-11.38.03-.46.05-1.25.4-1.55Z"/><path class="cls-1" d="M198.23,46.04c1.47-.43,3.27.12,4.65.61,2.92,1.03,6.73,3.07,9.51,4.56,38.94,20.9,63.23,62.16,62.85,106.56-.16,1.71-4.11,4.99-5.56,5.21-1.33.21-2.53-.04-3.58-.87l-68.14-110.54c-.87-1.35-1.83-4.92.27-5.53Z"/><path class="cls-1" d="M149.89,274.87c-.15-.09-.24-.64-.49-.84-1.3-1.07-3.43-2.06-2.28-4.05l16.8-14.02c5.62-3.99,12.01-3.86,17.73-.12,1.91,1.25,8.6,6.25,9.43,7.93,2.96,6.01-3.84,7.34-8.02,8.33-8.55,2.03-18.62,3.18-27.4,3.15-.75,0-5.51-.23-5.76-.38Z"/><path class="cls-1" d="M272.05,166.4c.53-.5,1.67-1.03,2.31-.57.55.39.43,9.03-2.24,6.43-1.45-1.41-1.54-4.45-.07-5.86Z"/></g><path d="M382.35,102.78h26.43v30.18h5.41c1.67-21.23,17.69-32.89,38.09-32.89,23.73,0,38.09,14.78,38.09,41.22v72.44h-26.23v-67.44c0-16.65-9.78-25.6-23.52-25.6-19.36,0-31.85,17.48-31.85,48.08v44.96h-26.43v-110.95Z"/><path d="M511.62,175.22v-72.44h26.44v67.44c0,16.65,9.57,25.6,23.31,25.6,19.57,0,32.06-17.49,32.06-48.08v-44.96h26.23v110.95h-26.23v-30.18h-5.62c-1.66,21.23-17.69,32.89-38.09,32.89-23.73,0-38.09-14.57-38.09-41.21Z"/><path d="M661.71,170.85v-47.04h-29.97v-21.02h31.02v-31.64l25.19-13.53v45.17h43.92v21.02h-59.74v6.25h3.54c8.32.21,12.28,5.41,12.28,12.91v25.6c0,15.82,7.7,24.15,22.48,24.15h21.44v21.02h-28.1c-27.06,0-42.05-14.99-42.05-42.88Z"/><path d="M738.1,241.83l41.63-33.51,4.37-3.33c-28.31-2.08-46.63-23.1-46.63-50.37,0-29.98,23.52-51.83,58.08-51.83h60.16v21.02h-38.92v5.41c19.98,1.25,28.52,16.24,28.52,31.43s-7.91,25.6-17.9,34.35l-29.77,26.23c-9.37,8.32-16.24,11.03-29.14,11.03h-3.75v6.24h87.22v21.02h-113.86v-17.69ZM822.4,154.61c0-17.28-12.91-30.6-29.97-30.6s-30.18,12.91-30.18,30.6,12.7,30.81,30.18,30.81c18.94,0,29.97-14.57,29.97-30.81Z"/><path d="M870.91,102.78h26.44v38.3h5.41c1.87-27.27,17.69-39.34,42.46-39.34h13.95v23.1h-15.4c-31.85,0-46.42,18.94-46.42,53.29v35.59h-26.44v-110.95Z"/><path d="M967.49,179.17c0-15.4,7.91-26.64,15.61-33.51,16.24-14.57,20.4-15.4,36.43-15.4h14.78v-6.45h-65.36v-21.02h108.45v110.95h-26.44v-30.6h-5.41c-2.71,21.86-18.94,33.31-39.97,33.31-23.11,0-38.09-16.86-38.09-37.26ZM1050.96,148.57v-25.19l-38.09,26.23c-12.7,8.74-17.28,16.03-17.28,25.6,0,12.91,9.37,20.81,22.9,20.81,19.36,0,32.47-16.44,32.47-47.46Z"/><path d="M1160.46,51.37h38.92v21.02h-33.1c-13.53,0-20.61,7.08-20.61,20.19v10.2h53.7v21.02h-69.52v6.25h3.54c8.33.21,12.28,5.41,12.28,12.91v70.77h-26.23v-89.92h-29.97v-21.02h29.97v-10.62c0-25.81,14.57-40.8,41.01-40.8Z"/></svg>