<?xml version="1.0" encoding="utf-8" standalone="yes"?>
<svg width="139" height="34" viewBox="0 0 139 34" fill="none" xmlns="http://www.w3.org/2000/svg">
<path d="M41.7297 1.13086V8.72175C41.7297 9.96681 42.0051 10.8852 42.5558 11.4769C43.1047 12.067 43.8667 12.3646 44.8338 12.3646C45.8009 12.3646 46.5398 12.0644 47.0785 11.4667C47.6172 10.869 47.884 9.95312 47.884 8.72175V1.13086H49.5079V8.72175C49.5079 10.444 49.0803 11.7386 48.2252 12.6057C47.3701 13.4728 46.2242 13.9063 44.7876 13.9063C43.3647 13.9063 42.2257 13.4728 41.3706 12.6057C40.5155 11.7386 40.0879 10.444 40.0879 8.72175V1.13086H41.7297Z" fill="#000000"/>
<path d="M52.5099 0.314543C52.7404 0.133542 53.025 0.0351562 53.318 0.0351563C53.6111 0.0351562 53.8956 0.133542 54.1261 0.314543C54.2215 0.409845 54.2972 0.523017 54.3488 0.647589C54.4005 0.77216 54.4271 0.905689 54.4271 1.04054C54.4271 1.17539 54.4005 1.30892 54.3488 1.43349C54.2972 1.55806 54.2215 1.67124 54.1261 1.76654C53.8956 1.94754 53.6111 2.04592 53.318 2.04592C53.025 2.04592 52.7404 1.94754 52.5099 1.76654C52.4145 1.67124 52.3388 1.55806 52.2872 1.43349C52.2356 1.30892 52.209 1.17539 52.209 1.04054C52.209 0.905689 52.2356 0.77216 52.2872 0.647589C52.3388 0.523017 52.4145 0.409845 52.5099 0.314543ZM54.1261 3.92913V13.7827H52.492V3.92913H54.1261Z" fill="#000000"/>
<path d="M58.8968 8.68584V13.7832H57.2627V1.13086H61.2826C62.7295 1.13086 63.812 1.46863 64.5304 2.14417C65.2487 2.81972 65.6078 3.7441 65.6078 4.91733C65.6078 6.10252 65.2367 7.02691 64.4944 7.69048C63.7522 8.35405 62.6816 8.68584 61.2826 8.68584H58.8968ZM63.2836 6.69255C63.51 6.45832 63.685 6.1795 63.7977 5.87385C63.9103 5.5682 63.958 5.24244 63.9378 4.91733C63.9378 4.1272 63.7197 3.52861 63.2836 3.12158C62.8475 2.71454 62.1326 2.50589 61.1389 2.49563H58.8968V7.32107H61.1389C62.1317 7.32107 62.8475 7.11327 63.2836 6.69255Z" fill="#000000"/>
<path d="M72.8656 4.52255C73.5251 4.99431 74.0132 5.66784 74.2561 6.44144V3.92995H75.8902V13.7835H74.2561V11.2694C74.0138 12.0441 73.5257 12.7186 72.8656 13.1909C72.1522 13.683 71.3 13.9339 70.4337 13.9066C69.6154 13.9208 68.8089 13.7105 68.1018 13.2986C67.4105 12.8806 66.8532 12.2736 66.4959 11.5491C66.0943 10.713 65.899 9.79282 65.9264 8.8657C65.9037 7.93513 66.1033 7.01257 66.5087 6.17464C66.8636 5.4458 67.4212 4.83477 68.1146 4.4148C68.8215 4.00202 69.628 3.79085 70.4465 3.80425C71.3087 3.7807 72.156 4.03229 72.8656 4.52255ZM68.4917 6.21825C67.888 6.85959 67.5861 7.74207 67.5861 8.8657C67.5861 9.98933 67.888 10.8718 68.4917 11.5131C68.8036 11.8343 69.18 12.0858 69.596 12.2512C70.0121 12.4166 70.4584 12.492 70.9057 12.4726C71.513 12.4834 72.1118 12.3282 72.6373 12.0237C73.1468 11.7236 73.5605 11.285 73.8302 10.7589C74.1274 10.1729 74.2754 9.52262 74.2612 8.8657C74.2745 8.20559 74.1266 7.5522 73.8302 6.96221C73.5624 6.43478 73.1482 5.99569 72.6373 5.69748C72.1094 5.39984 71.5117 5.24841 70.9057 5.25881C70.4584 5.23939 70.0121 5.31484 69.596 5.4802C69.18 5.64556 68.8036 5.89709 68.4917 6.21825Z" fill="#000000"/>
<path d="M83.5711 12.3459V13.7825H82.3448C81.3392 13.7825 80.5876 13.5413 80.0924 13.0642C79.5973 12.587 79.3485 11.7815 79.3485 10.6579V5.34757H77.876V3.92893H79.3485V1.46875H80.998V3.92636H83.5454V5.34501H80.998V10.704C80.998 11.3402 81.116 11.7738 81.3469 12.0047C81.5778 12.2356 81.9857 12.3561 82.5603 12.3561L83.5711 12.3459Z" fill="#000000"/>
<path d="M93.7012 4.87302C94.4075 5.60671 94.7607 6.66792 94.7607 8.05663V13.7825H93.1188V8.20029C93.1188 7.22032 92.8674 6.46696 92.3646 5.94021C92.0974 5.67156 91.7764 5.46232 91.4228 5.32617C91.0691 5.19001 90.6907 5.13001 90.3123 5.15008C89.9118 5.13241 89.5122 5.2009 89.1405 5.35093C88.7687 5.50096 88.4335 5.72903 88.1574 6.01974C87.6204 6.59951 87.3519 7.44607 87.3519 8.55944V13.7825H85.7178V0.912109H87.3519V6.26345C87.5673 5.5095 88.0402 4.85497 88.6885 4.41382C89.3498 3.97834 90.1288 3.75628 90.9203 3.77761C91.4347 3.75544 91.948 3.84148 92.427 4.03018C92.906 4.21887 93.3401 4.50601 93.7012 4.87302Z" fill="#000000"/>
<path d="M48.2103 18.5723V21.0119H43.0052V23.7876H47.0251V26.1195H43.0052V31.2503H39.9268V18.5723H48.2103Z" fill="#000000"/>
<path d="M55.539 21.7353C56.3154 22.1427 56.957 22.7665 57.3861 23.5311C57.8291 24.3722 58.0607 25.3086 58.0607 26.2593C58.0607 27.21 57.8291 28.1465 57.3861 28.9876C56.957 29.7522 56.3154 30.376 55.539 30.7834C54.708 31.1901 53.795 31.4015 52.8697 31.4015C51.9445 31.4015 51.0315 31.1901 50.2005 30.7834C49.4201 30.3778 48.7748 29.7539 48.3432 28.9876C47.9016 28.146 47.6709 27.2098 47.6709 26.2593C47.6709 25.3089 47.9016 24.3727 48.3432 23.5311C48.7748 22.7648 49.4201 22.1408 50.2005 21.7353C51.0315 21.3286 51.9445 21.1172 52.8697 21.1172C53.795 21.1172 54.708 21.3286 55.539 21.7353ZM51.3934 24.4084C50.9915 24.836 50.7905 25.45 50.7905 26.2504C50.7905 27.0508 50.9906 27.6613 51.3908 28.082C51.5796 28.2849 51.8089 28.4457 52.064 28.554C52.319 28.6622 52.594 28.7156 52.871 28.7105C53.147 28.7165 53.4212 28.6635 53.6751 28.5551C53.929 28.4467 54.1569 28.2854 54.3435 28.082C54.7386 27.6647 54.9361 27.0542 54.9361 26.2504C54.9361 25.4466 54.7386 24.8334 54.3435 24.411C54.158 24.2057 53.9305 24.0426 53.6764 23.9328C53.4224 23.8231 53.1477 23.7692 52.871 23.7748C52.5937 23.7703 52.3186 23.8246 52.0639 23.9343C51.8092 24.044 51.5807 24.2064 51.3934 24.411V24.4084Z" fill="#000000"/>
<path d="M69.1513 21.2461V31.251H66.0729V29.4373C65.7913 30.0194 65.3454 30.5063 64.7902 30.838C64.19 31.1907 63.5031 31.3684 62.8072 31.351C62.2943 31.374 61.7827 31.2828 61.3094 31.0841C60.836 30.8853 60.4127 30.584 60.07 30.2018C59.3961 29.4373 59.0584 28.3846 59.0566 27.0438V21.2461H62.1068V26.6821C62.0708 27.2603 62.2613 27.8298 62.6379 28.27C62.8216 28.4606 63.0439 28.6097 63.2898 28.7075C63.5358 28.8053 63.7998 28.8494 64.0642 28.837C64.3376 28.851 64.6107 28.8052 64.8646 28.7029C65.1184 28.6005 65.3469 28.4441 65.5342 28.2444C65.9205 27.77 66.113 27.1669 66.0729 26.5564V21.2461H69.1513Z" fill="#000000"/>
<path d="M79.8821 22.2877C80.556 23.0522 80.898 24.1049 80.9083 25.4457V31.2588H77.8299V25.8023C77.8635 25.2303 77.6741 24.6675 77.3014 24.2323C77.1199 24.044 76.9005 23.8963 76.6577 23.799C76.415 23.7017 76.1543 23.657 75.893 23.6679C75.6182 23.6545 75.3437 23.7004 75.0883 23.8027C74.8328 23.905 74.6024 24.0611 74.4128 24.2605C74.0201 24.7309 73.8236 25.3345 73.8638 25.9459V31.2588H70.8008V21.2539H73.8792V23.083C74.1581 22.495 74.6043 22.0024 75.1619 21.6669C75.7678 21.3121 76.461 21.1343 77.1629 21.1538C77.6716 21.1311 78.1791 21.221 78.6492 21.417C79.1192 21.613 79.5402 21.9103 79.8821 22.2877Z" fill="#000000"/>
<path d="M88.2455 21.6412C88.7857 21.9748 89.2067 22.4704 89.4487 23.0573V17.9805H92.5271V31.2588H89.4487V29.4451C89.2076 30.0332 88.7864 30.5299 88.2455 30.8637C87.6505 31.2199 86.9659 31.398 86.2727 31.3768C85.4899 31.388 84.7203 31.1733 84.0563 30.7585C83.3826 30.3188 82.8486 29.6957 82.5171 28.9628C82.1431 28.1004 81.9502 27.1706 81.9502 26.2307C81.9502 25.2908 82.1431 24.3609 82.5171 23.4986C82.8519 22.7725 83.3856 22.1561 84.0563 21.7208C84.7198 21.3047 85.4897 21.09 86.2727 21.1025C86.9684 21.089 87.6532 21.276 88.2455 21.6412ZM85.6801 24.4631C85.2885 24.9799 85.0766 25.6105 85.0766 26.2589C85.0766 26.9073 85.2885 27.5379 85.6801 28.0546C86.1045 28.4718 86.6767 28.704 87.2718 28.7007C87.8669 28.6973 88.4364 28.4586 88.8561 28.0367C89.2566 27.5292 89.4744 26.9015 89.4744 26.255C89.4744 25.6085 89.2566 24.9809 88.8561 24.4734C88.6529 24.258 88.4062 24.0883 88.1324 23.9755C87.8587 23.8627 87.564 23.8094 87.2681 23.8192C86.973 23.8051 86.6784 23.8549 86.4043 23.9652C86.1303 24.0754 85.8833 24.2435 85.6801 24.458V24.4631Z" fill="#000000"/>
<path d="M99.9734 21.6395C100.515 21.9758 100.942 22.47 101.195 23.0556V21.2444H104.245V31.2493H101.195V29.4356C100.942 30.0224 100.516 30.5177 99.9734 30.8543C99.3785 31.2105 98.6938 31.3885 98.0007 31.3673C97.2178 31.3785 96.4483 31.1639 95.7842 30.7491C95.1114 30.3084 94.5776 29.6856 94.245 28.9533C93.8727 28.0906 93.6807 27.1609 93.6807 26.2212C93.6807 25.2816 93.8727 24.3519 94.245 23.4891C94.5809 22.7637 95.1144 22.1476 95.7842 21.7113C96.4483 21.3058 97.2151 21.1 97.993 21.1187C98.6895 21.0984 99.3771 21.2792 99.9734 21.6395ZM97.4081 24.4614C97.0181 24.9788 96.8071 25.6092 96.8071 26.2571C96.8071 26.9051 97.0181 27.5355 97.4081 28.0529C97.8329 28.4702 98.4055 28.7025 99.001 28.6992C99.5965 28.6958 100.166 28.457 100.587 28.0349C100.987 27.5275 101.205 26.8998 101.205 26.2533C101.205 25.6068 100.987 24.9791 100.587 24.4717C100.162 24.0551 99.5918 23.8216 98.9973 23.8216C98.4029 23.8216 97.8322 24.0551 97.4081 24.4717V24.4614Z" fill="#000000"/>
<path d="M111.589 28.6207V31.2579H110.204C109.031 31.2579 108.118 30.968 107.467 30.3883C106.815 29.8085 106.489 28.8482 106.489 27.5074V23.8287H105.143V21.2453H106.489V18.7852H109.568V21.2453H111.579V23.8287H109.568V27.5612C109.536 27.858 109.624 28.1551 109.812 28.3873C110.044 28.5649 110.336 28.6483 110.627 28.6207H111.589Z" fill="#000000"/>
<path d="M113.078 17.2693C113.457 16.9733 113.924 16.8125 114.405 16.8125C114.886 16.8125 115.354 16.9733 115.733 17.2693C115.898 17.4133 116.03 17.5918 116.118 17.7921C116.207 17.9925 116.251 18.2098 116.246 18.4289C116.249 18.6447 116.205 18.8586 116.116 19.0554C116.027 19.2522 115.897 19.4271 115.733 19.5679C115.354 19.8639 114.886 20.0247 114.405 20.0247C113.924 20.0247 113.457 19.8639 113.078 19.5679C112.914 19.4271 112.783 19.2522 112.695 19.0554C112.606 18.8586 112.562 18.6447 112.565 18.4289C112.56 18.2098 112.604 17.9925 112.693 17.7921C112.781 17.5918 112.913 17.4133 113.078 17.2693ZM115.931 21.2456V31.2505H112.873V21.2456H115.931Z" fill="#000000"/>
<path d="M124.868 21.7354C125.643 22.1435 126.285 22.7671 126.715 23.5311C127.156 24.3727 127.387 25.309 127.387 26.2594C127.387 27.2098 127.156 28.146 126.715 28.9876C126.285 29.7517 125.643 30.3753 124.868 30.7834C124.036 31.1901 123.123 31.4016 122.197 31.4016C121.271 31.4016 120.358 31.1901 119.526 30.7834C118.747 30.3779 118.102 29.7538 117.672 28.9876C117.229 28.1465 116.997 27.2101 116.997 26.2594C116.997 25.3087 117.229 24.3723 117.672 23.5311C118.102 22.765 118.747 22.1409 119.526 21.7354C120.358 21.3286 121.271 21.1172 122.197 21.1172C123.123 21.1172 124.036 21.3286 124.868 21.7354ZM120.722 24.411C120.318 24.8369 120.117 25.45 120.119 26.2504C120.121 27.0508 120.322 27.6614 120.722 28.0821C120.91 28.2852 121.14 28.4461 121.395 28.5545C121.65 28.6628 121.925 28.716 122.202 28.7106C122.478 28.7161 122.751 28.663 123.005 28.5546C123.258 28.4462 123.486 28.2852 123.672 28.0821C124.067 27.6648 124.265 27.0542 124.265 26.2504C124.265 25.4466 124.067 24.8335 123.672 24.411C123.487 24.206 123.26 24.0432 123.006 23.9334C122.753 23.8237 122.478 23.7696 122.202 23.7748C121.924 23.7698 121.649 23.8239 121.394 23.9336C121.138 24.0433 120.909 24.206 120.722 24.411Z" fill="#000000"/>
<path d="M137.6 22.2876C138.276 23.0521 138.618 24.1047 138.626 25.4456V31.2587H135.548V25.8022C135.582 25.2302 135.392 24.6674 135.02 24.2322C134.838 24.0439 134.619 23.8962 134.376 23.7989C134.133 23.7016 133.872 23.6569 133.611 23.6678C133.336 23.6543 133.062 23.7003 132.806 23.8026C132.551 23.9049 132.321 24.061 132.131 24.2604C131.738 24.7308 131.542 25.3344 131.582 25.9458V31.2587H128.521V21.2538H131.6V23.0829C131.879 22.4949 132.325 22.0023 132.883 21.6668C133.488 21.312 134.182 21.1342 134.884 21.1537C135.392 21.1314 135.899 21.2214 136.369 21.4174C136.838 21.6134 137.259 21.9105 137.6 22.2876Z" fill="#000000"/>
<path d="M20.8379 14.2833C21.9657 14.2833 22.8799 13.369 22.8799 12.2412C22.8799 11.1135 21.9657 10.1992 20.8379 10.1992C19.7101 10.1992 18.7959 11.1135 18.7959 12.2412C18.7959 13.369 19.7101 14.2833 20.8379 14.2833Z" fill="#000000"/>
<path d="M5.73018 1.52476C5.27405 1.73204 4.86407 2.02862 4.52446 2.39698C4.1476 2.80972 3.84939 3.2879 3.64454 3.80792C3.40621 4.42267 3.28946 5.07784 3.30078 5.73707V11.5912C3.30606 12.0832 3.2351 12.573 3.09043 13.0432C2.96941 13.4434 2.78398 13.8212 2.54144 14.1617C2.33657 14.4429 2.07423 14.6772 1.77183 14.8492C1.51444 15.0011 1.22156 15.0825 0.922698 15.0852H0.632812V17.8712H0.93296C1.23155 17.8732 1.52501 17.949 1.78722 18.0918C2.08824 18.2536 2.35076 18.4785 2.55683 18.7511C2.80058 19.0831 2.98541 19.4545 3.10325 19.8491C3.24936 20.3305 3.32031 20.8315 3.31361 21.3344V26.7551C3.30229 27.4143 3.41903 28.0694 3.65737 28.6842C3.86221 29.2042 4.16042 29.6824 4.53729 30.0951C4.8779 30.4624 5.28764 30.7588 5.74301 30.9674C6.16495 31.161 6.62303 31.2632 7.08725 31.2675H11.9691V28.7381H7.71833C7.51079 28.7515 7.30524 28.6906 7.13856 28.5662C6.97061 28.4206 6.83886 28.2379 6.75376 28.0326C6.64259 27.7715 6.56917 27.496 6.5357 27.2142C6.49501 26.9021 6.47445 26.5876 6.47413 26.2728V20.8188C6.49434 20.088 6.37146 19.3604 6.11242 18.6767C5.91121 18.1705 5.62682 17.7014 5.27098 17.2889C4.98835 16.963 4.64618 16.6939 4.26279 16.4962L4.12683 16.4346L4.27562 16.3551C4.65335 16.135 4.99082 15.8522 5.27354 15.5188C6.0848 14.5697 6.5129 13.3522 6.47413 12.1043V6.21936C6.47371 5.89343 6.49427 5.56781 6.5357 5.24452C6.56724 4.9693 6.63988 4.70037 6.75119 4.4467C6.84006 4.24939 6.97146 4.07418 7.13599 3.93363C7.30377 3.80946 7.51002 3.74858 7.71833 3.76175H11.9691V1.22461H7.07443C6.61021 1.22889 6.15213 1.33117 5.73018 1.52476Z" fill="#000000"/>
<path d="M31.1682 15.0852C30.8682 15.0852 30.5732 15.0084 30.3113 14.8621C30.0134 14.6985 29.7565 14.4696 29.5597 14.1925C29.3139 13.8535 29.1274 13.4753 29.0081 13.074C28.8629 12.5933 28.7919 12.0933 28.7978 11.5912V5.73707C28.8091 5.07784 28.6923 4.42267 28.454 3.80792C28.2492 3.2879 27.951 2.80972 27.5741 2.39698C27.2345 2.02862 26.8245 1.73204 26.3684 1.52476C25.9464 1.33117 25.4884 1.22889 25.0241 1.22461H21.289V3.75405H24.3956C24.6032 3.7406 24.8087 3.80154 24.9754 3.92593C25.1426 4.07166 25.2734 4.25436 25.3576 4.45953C25.4696 4.72028 25.5431 4.99596 25.5757 5.27787C25.6198 5.61125 25.6412 5.94722 25.6398 6.28349V12.1043C25.6184 12.8349 25.7404 13.5627 25.999 14.2464C26.1999 14.7528 26.4843 15.2219 26.8404 15.6342C27.124 15.9602 27.467 16.2292 27.8512 16.4269L27.9846 16.4885L27.8358 16.5706C27.4574 16.7898 27.1198 17.0727 26.8378 17.4069C26.0283 18.3558 25.6012 19.5721 25.6398 20.8188V26.2728C25.6404 26.5988 25.619 26.9245 25.5757 27.2476C25.5442 27.522 25.4715 27.7901 25.3602 28.0429C25.2716 28.2403 25.1402 28.4156 24.9754 28.5559C24.8087 28.6803 24.6032 28.7413 24.3956 28.7278H21.6763V28.7458C21.3315 28.7866 20.9949 28.88 20.6784 29.0228C20.2227 29.2308 19.8128 29.5273 19.4727 29.895C19.0958 30.3078 18.7976 30.786 18.5928 31.306C18.404 31.7506 18.2879 32.2227 18.249 32.7041V33.0222H21.448L21.4839 32.7657C21.5148 32.4903 21.5875 32.2213 21.6994 31.9679C21.7873 31.77 21.9189 31.5946 22.0842 31.4548C22.2472 31.333 22.4481 31.273 22.6512 31.2855H25.0241C25.4891 31.2809 25.948 31.1787 26.3709 30.9853C26.8251 30.776 27.2339 30.4797 27.5741 30.1131C27.951 29.7004 28.2492 29.2222 28.454 28.7022C28.6919 28.0873 28.8086 27.4322 28.7978 26.773V21.3344C28.7926 20.8475 28.8635 20.3628 29.0081 19.8978C29.1306 19.5025 29.3169 19.1299 29.5597 18.7947C29.7614 18.5148 30.0191 18.2798 30.3165 18.1047C30.5751 17.9538 30.8687 17.8733 31.1682 17.8712H31.4657V15.0852H31.1682Z" fill="#000000"/>
</svg>
